<svg width="18" height="16" viewBox="0 0 18 16" fill="none" xmlns="http://www.w3.org/2000/svg">
<path d="M17.25 7.25H2.28787L8.01713 1.793C8.31713 1.50725 8.32875 1.0325 8.043 0.732504C7.75763 0.432879 7.28288 0.420878 6.9825 0.706629L0.4395 6.93913C0.156375 7.22263 0 7.59913 0 8C0 8.4005 0.156375 8.77738 0.452625 9.07325L6.98287 15.293C7.128 15.4314 7.314 15.5 7.5 15.5C7.698 15.5 7.896 15.422 8.04338 15.2671C8.32912 14.9671 8.3175 14.4928 8.0175 14.207L2.26425 8.75H17.25C17.664 8.75 18 8.414 18 8C18 7.586 17.664 7.25 17.25 7.25Z" fill="#1D2B5B"/>
</svg>
