<svg width="42" height="42" viewBox="0 0 42 42" fill="none" xmlns="http://www.w3.org/2000/svg">
<g clip-path="url(#clip0)">
<path d="M18.2516 31.3485C18.0341 31.3485 17.8255 31.262 17.6717 31.1082L8.75204 22.1889C8.43161 21.8684 8.43161 21.349 8.75204 21.0286L13.3923 16.3884C13.7127 16.0679 14.2321 16.0679 14.5526 16.3884L18.2516 20.0874L27.4468 10.8919C27.6006 10.7381 27.8096 10.6516 28.0271 10.6516C28.2444 10.6516 28.4533 10.7381 28.6071 10.8919L33.2473 15.5325C33.5678 15.8526 33.5678 16.372 33.2473 16.6924L18.8316 31.1085C18.6778 31.2623 18.4692 31.3485 18.2516 31.3485ZM10.4923 21.6089L18.2516 29.3682L31.5074 16.1125L28.0271 12.6319L18.8316 21.8274C18.5112 22.1478 17.9918 22.1478 17.6717 21.8274L13.9726 18.1283L10.4923 21.6089Z" fill="white"/>
<path d="M20.9949 42C20.4591 42 19.9227 41.9795 19.3853 41.9385C14.3949 41.5559 9.69475 39.3933 6.15074 35.8496C2.1844 31.8829 0 26.6095 0 21C0 15.3908 2.1844 10.1171 6.15074 6.15074C10.1171 2.1844 15.3908 0 21 0C26.6095 0 31.8829 2.1844 35.8496 6.15074C39.3933 9.69475 41.5559 14.3949 41.9385 19.3853C42.3169 24.3216 40.9422 29.2419 38.0679 33.2403C37.8036 33.6081 37.2909 33.6918 36.923 33.4274C36.5552 33.1631 36.4715 32.6504 36.7359 32.2825C42.2916 24.5546 41.4309 14.0527 34.6893 7.31071C27.1411 -0.237442 14.8592 -0.237442 7.31104 7.31071C-0.237442 14.8592 -0.237442 27.1408 7.31104 34.6893C14.0527 41.4306 24.5549 42.2916 32.2828 36.7356C32.6507 36.4712 33.1631 36.5552 33.4277 36.923C33.6921 37.2909 33.6081 37.8033 33.2403 38.0679C29.677 40.6295 25.3813 42 20.9949 42Z" fill="white"/>
<path d="M35.2695 36.09C35.0536 36.09 34.8421 36.0022 34.6895 35.8496C34.537 35.6968 34.4492 35.4853 34.4492 35.2697C34.4492 35.0537 34.537 34.8422 34.6895 34.6897C34.8421 34.5371 35.0536 34.4493 35.2695 34.4493C35.4852 34.4493 35.6967 34.5371 35.8495 34.6897C36.002 34.8422 36.0898 35.0537 36.0898 35.2697C36.0898 35.4853 36.002 35.6968 35.8495 35.8496C35.6967 36.0022 35.4852 36.09 35.2695 36.09Z" fill="white"/>
</g>
<defs>
<clipPath id="clip0">
<rect width="42" height="42" fill="white"/>
</clipPath>
</defs>
</svg>
