<svg width="29" height="29" viewBox="0 0 29 29" fill="none" xmlns="http://www.w3.org/2000/svg">
<g clip-path="url(#clip0)">
<path d="M24.7708 29.0002H10.2708C8.60575 29.0002 7.25 27.6456 7.25 25.9793V7.85433C7.25 6.18804 8.60575 4.8335 10.2708 4.8335H24.7708C26.4359 4.8335 27.7917 6.18804 27.7917 7.85433V25.9793C27.7917 27.6456 26.4359 29.0002 24.7708 29.0002ZM10.2708 6.04183C9.27154 6.04183 8.45833 6.85504 8.45833 7.85433V25.9793C8.45833 26.9786 9.27154 27.7918 10.2708 27.7918H24.7708C25.7701 27.7918 26.5833 26.9786 26.5833 25.9793V7.85433C26.5833 6.85504 25.7701 6.04183 24.7708 6.04183H10.2708Z" fill="#1D2B5B"/>
<path d="M5.43815 25.375H4.22982C2.56473 25.375 1.20898 24.0205 1.20898 22.3542V3.02083C1.20898 1.35454 2.56473 0 4.22982 0H18.7298C20.3949 0 21.7507 1.35454 21.7507 3.02083C21.7507 3.35433 21.48 3.625 21.1465 3.625C20.813 3.625 20.5423 3.35433 20.5423 3.02083C20.5423 2.02154 19.7291 1.20833 18.7298 1.20833H4.22982C3.23053 1.20833 2.41732 2.02154 2.41732 3.02083V22.3542C2.41732 23.3535 3.23053 24.1667 4.22982 24.1667H5.43815C5.77165 24.1667 6.04232 24.4373 6.04232 24.7708C6.04232 25.1043 5.77165 25.375 5.43815 25.375Z" fill="#1D2B5B"/>
<path d="M22.3548 20.5418H12.6882C12.3547 20.5418 12.084 20.2712 12.084 19.9377C12.084 19.6042 12.3547 19.3335 12.6882 19.3335H22.3548C22.6883 19.3335 22.959 19.6042 22.959 19.9377C22.959 20.2712 22.6883 20.5418 22.3548 20.5418Z" fill="#1D2B5B"/>
<path d="M22.3548 25.3751H12.6882C12.3547 25.3751 12.084 25.1044 12.084 24.7709C12.084 24.4374 12.3547 24.1667 12.6882 24.1667H22.3548C22.6883 24.1667 22.959 24.4374 22.959 24.7709C22.959 25.1044 22.6883 25.3751 22.3548 25.3751Z" fill="#1D2B5B"/>
<path d="M22.3548 15.7083H12.6882C12.3547 15.7083 12.084 15.4377 12.084 15.1042C12.084 14.7707 12.3547 14.5 12.6882 14.5H22.3548C22.6883 14.5 22.959 14.7707 22.959 15.1042C22.959 15.4377 22.6883 15.7083 22.3548 15.7083Z" fill="#1D2B5B"/>
<path d="M22.3548 10.8748H12.6882C12.3547 10.8748 12.084 10.6042 12.084 10.2707C12.084 9.93717 12.3547 9.6665 12.6882 9.6665H22.3548C22.6883 9.6665 22.959 9.93717 22.959 10.2707C22.959 10.6042 22.6883 10.8748 22.3548 10.8748Z" fill="#1D2B5B"/>
</g>
<defs>
<clipPath id="clip0">
<rect width="29" height="29" fill="white"/>
</clipPath>
</defs>
</svg>
