<svg width="35" height="35" viewBox="0 0 35 35" fill="none" xmlns="http://www.w3.org/2000/svg">
<g clip-path="url(#clip0)">
<path d="M34.6061 13.3766L28.9843 8.69532V4.92189C28.9843 4.6318 28.869 4.3536 28.6639 4.14849C28.4588 3.94337 28.1806 3.82814 27.8905 3.82814C27.6004 3.82814 27.3222 3.94337 27.1171 4.14849C26.912 4.3536 26.7968 4.6318 26.7968 4.92189V6.86876L19.5999 0.87501C19.0103 0.383917 18.2672 0.11499 17.4999 0.11499C16.7326 0.11499 15.9895 0.383917 15.3999 0.87501L0.393655 13.3766C0.170293 13.5622 0.0298287 13.829 0.00316337 14.1182C-0.023502 14.4074 0.0658156 14.6954 0.251467 14.9188C0.437119 15.1421 0.703897 15.2826 0.993113 15.3093C1.28233 15.3359 1.57029 15.2466 1.79365 15.0609L16.7999 2.55392C16.9964 2.39022 17.2441 2.30058 17.4999 2.30058C17.7557 2.30058 18.0034 2.39022 18.1999 2.55392L30.6249 12.9063V31.7188C30.6249 32.0088 30.5097 32.287 30.3046 32.4922C30.0994 32.6973 29.8212 32.8125 29.5312 32.8125H24.0624V20.7813C24.0624 19.911 23.7167 19.0764 23.1013 18.4611C22.486 17.8457 21.6514 17.5 20.7812 17.5H14.2187C13.3484 17.5 12.5138 17.8457 11.8985 18.4611C11.2831 19.0764 10.9374 19.911 10.9374 20.7813V32.8125H5.46865C5.17857 32.8125 4.90037 32.6973 4.69526 32.4922C4.49014 32.287 4.3749 32.0088 4.3749 31.7188V18.5938C4.3749 18.3037 4.25967 18.0255 4.05455 17.8204C3.84943 17.6152 3.57123 17.5 3.28115 17.5C2.99107 17.5 2.71287 17.6152 2.50776 17.8204C2.30264 18.0255 2.1874 18.3037 2.1874 18.5938V31.7188C2.1874 32.589 2.53311 33.4236 3.14846 34.039C3.76381 34.6543 4.59841 35 5.46865 35H29.5312C30.4014 35 31.236 34.6543 31.8513 34.039C32.4667 33.4236 32.8124 32.589 32.8124 31.7188V14.7328L33.2062 15.0609C33.4029 15.224 33.6506 15.313 33.9062 15.3125C34.1314 15.313 34.3512 15.2439 34.5357 15.1147C34.7202 14.9855 34.8603 14.8025 34.9369 14.5907C35.0135 14.3789 35.0228 14.1486 34.9636 13.9313C34.9044 13.714 34.7796 13.5203 34.6061 13.3766ZM13.1249 32.8125V20.7813C13.1249 20.4912 13.2401 20.213 13.4453 20.0079C13.6504 19.8027 13.9286 19.6875 14.2187 19.6875H20.7812C21.0712 19.6875 21.3494 19.8027 21.5546 20.0079C21.7597 20.213 21.8749 20.4912 21.8749 20.7813V32.8125H13.1249Z" fill="white"/>
<path d="M16.4062 27.3438C17.0103 27.3438 17.5 26.8541 17.5 26.25C17.5 25.6459 17.0103 25.1562 16.4062 25.1562C15.8022 25.1562 15.3125 25.6459 15.3125 26.25C15.3125 26.8541 15.8022 27.3438 16.4062 27.3438Z" fill="white"/>
</g>
<defs>
<clipPath id="clip0">
<rect width="35" height="35" fill="white"/>
</clipPath>
</defs>
</svg>
