<svg width="68" height="68" viewBox="0 0 68 68" fill="none" xmlns="http://www.w3.org/2000/svg">
<g clip-path="url(#clip0)">
<path d="M67.2357 25.9887L56.3132 16.8937V9.5625C56.3132 8.99891 56.0893 8.45841 55.6908 8.0599C55.2923 7.66138 54.7518 7.4375 54.1882 7.4375C53.6246 7.4375 53.0841 7.66138 52.6856 8.0599C52.2871 8.45841 52.0632 8.99891 52.0632 9.5625V13.345L38.0807 1.7C36.9352 0.745874 35.4915 0.223389 34.0007 0.223389C32.5099 0.223389 31.0662 0.745874 29.9207 1.7L0.765707 25.9887C0.331747 26.3494 0.0588457 26.8678 0.00703883 27.4297C-0.0447681 27.9916 0.128763 28.551 0.489457 28.985C0.850152 29.419 1.36846 29.6919 1.93037 29.7437C2.49227 29.7955 3.05175 29.6219 3.48571 29.2612L32.6407 4.96187C33.0225 4.64383 33.5038 4.46967 34.0007 4.46967C34.4976 4.46967 34.9789 4.64383 35.3607 4.96187L59.5007 25.075V61.625C59.5007 62.1886 59.2768 62.7291 58.8783 63.1276C58.4798 63.5261 57.9393 63.75 57.3757 63.75H46.7507V40.375C46.7507 38.6842 46.0791 37.0627 44.8835 35.8672C43.688 34.6716 42.0665 34 40.3757 34H27.6257C25.9349 34 24.3134 34.6716 23.1179 35.8672C21.9224 37.0627 21.2507 38.6842 21.2507 40.375V63.75H10.6257C10.0621 63.75 9.52162 63.5261 9.12311 63.1276C8.72459 62.7291 8.50071 62.1886 8.50071 61.625V36.125C8.50071 35.5614 8.27682 35.0209 7.87831 34.6224C7.47979 34.2239 6.93929 34 6.37571 34C5.81212 34 5.27162 34.2239 4.8731 34.6224C4.47459 35.0209 4.25071 35.5614 4.25071 36.125V61.625C4.25071 63.3157 4.92236 64.9372 6.1179 66.1328C7.31345 67.3283 8.93495 68 10.6257 68H57.3757C59.0665 68 60.688 67.3283 61.8835 66.1328C63.079 64.9372 63.7507 63.3157 63.7507 61.625V28.6237L64.5157 29.2612C64.898 29.578 65.3792 29.751 65.8757 29.75C66.3133 29.7509 66.7404 29.6166 67.0988 29.3656C67.4573 29.1146 67.7294 28.7591 67.8782 28.3476C68.027 27.9361 68.0452 27.4887 67.9302 27.0665C67.8152 26.6443 67.5726 26.2679 67.2357 25.9887ZM25.5007 63.75V40.375C25.5007 39.8114 25.7246 39.2709 26.1231 38.8724C26.5216 38.4739 27.0621 38.25 27.6257 38.25H40.3757C40.9393 38.25 41.4798 38.4739 41.8783 38.8724C42.2768 39.2709 42.5007 39.8114 42.5007 40.375V63.75H25.5007Z" fill="white"/>
<path d="M31.875 53.125C33.0486 53.125 34 52.1736 34 51C34 49.8264 33.0486 48.875 31.875 48.875C30.7014 48.875 29.75 49.8264 29.75 51C29.75 52.1736 30.7014 53.125 31.875 53.125Z" fill="white"/>
</g>
<defs>
<clipPath id="clip0">
<rect width="68" height="68" fill="white"/>
</clipPath>
</defs>
</svg>
