<svg width="20" height="20" viewBox="0 0 20 20" fill="none" xmlns="http://www.w3.org/2000/svg">
<path d="M9.86969 4.68002H7.92969C7.79708 4.68002 7.6699 4.7327 7.57613 4.82647C7.48237 4.92024 7.42969 5.04741 7.42969 5.18002V14.82C7.42969 14.9526 7.48237 15.0798 7.57613 15.1736C7.6699 15.2673 7.79708 15.32 7.92969 15.32C8.0623 15.32 8.18947 15.2673 8.28324 15.1736C8.37701 15.0798 8.42969 14.9526 8.42969 14.82V11.195H9.86969C11.9147 11.195 13.5847 9.73502 13.5847 7.94002C13.5847 6.14502 11.9147 4.68002 9.86969 4.68002ZM9.86969 10.18H8.42969V5.68002H9.86969C11.3697 5.68002 12.5847 6.68002 12.5847 7.94002C12.5847 9.20002 11.3647 10.195 9.86969 10.195V10.18Z" fill="white"/>
<path d="M16.095 2.00003H3.87001C3.37135 2.0053 2.89499 2.20744 2.54472 2.56239C2.19445 2.91735 1.99866 3.39635 2.00001 3.89503V16.12C2.0026 16.6161 2.20014 17.0913 2.54999 17.443C2.89984 17.7947 3.37395 17.9948 3.87001 18H16.095C16.3436 18.002 16.5902 17.9549 16.8206 17.8614C17.051 17.768 17.2606 17.63 17.4376 17.4553C17.6146 17.2807 17.7553 17.0728 17.8518 16.8437C17.9483 16.6146 17.9987 16.3687 18 16.12V3.89503C18 3.64533 17.9507 3.39809 17.8548 3.16752C17.759 2.93696 17.6185 2.72761 17.4414 2.55151C17.2644 2.37541 17.0543 2.23604 16.8233 2.14139C16.5922 2.04675 16.3447 1.99871 16.095 2.00003ZM17 16.12C16.9987 16.2373 16.9742 16.3532 16.928 16.461C16.8817 16.5688 16.8146 16.6664 16.7305 16.7482C16.6464 16.83 16.547 16.8944 16.4379 16.9376C16.3288 16.9808 16.2123 17.002 16.095 17H3.87001C3.63917 16.9949 3.41938 16.9002 3.25704 16.736C3.09471 16.5718 3.00254 16.3509 3.00001 16.12V3.89503C2.99864 3.66154 3.08907 3.43687 3.25182 3.26945C3.41456 3.10203 3.63658 3.00527 3.87001 3.00003H16.095C16.2136 2.99803 16.3313 3.01974 16.4414 3.06388C16.5514 3.10802 16.6515 3.17371 16.7358 3.25709C16.8201 3.34046 16.8869 3.43985 16.9323 3.5494C16.9777 3.65895 17.0007 3.77646 17 3.89503V16.12Z" fill="white"/>
<path d="M18.105 2.65632e-05H1.86001C1.36355 0.00660956 0.889741 0.208795 0.541484 0.56267C0.193226 0.916545 -0.00135353 1.39353 7.0879e-06 1.89003V18.13C0.00388736 18.6231 0.200784 19.0949 0.548484 19.4445C0.896183 19.7941 1.36701 19.9935 1.86001 20H18.105C18.6041 20.0027 19.0838 19.8073 19.4391 19.4568C19.7943 19.1062 19.996 18.6291 20 18.13V1.89003C20.0007 1.64122 19.9521 1.39475 19.857 1.16481C19.762 0.934882 19.6223 0.726044 19.4461 0.550344C19.27 0.374644 19.0608 0.235557 18.8306 0.141106C18.6004 0.0466538 18.3538 -0.00129425 18.105 2.65632e-05ZM19 18.13C18.9961 18.3639 18.8997 18.5867 18.732 18.7497C18.5643 18.9127 18.3389 19.0027 18.105 19H1.86001C1.63222 18.9936 1.41569 18.8996 1.25549 18.7375C1.09529 18.5755 1.00378 18.3579 1.00001 18.13V1.89003C0.999876 1.65909 1.08951 1.43715 1.24999 1.27108C1.41046 1.105 1.6292 1.00781 1.86001 1.00003H18.105C18.2223 0.999368 18.3386 1.0219 18.4471 1.06633C18.5557 1.11076 18.6544 1.17622 18.7376 1.25893C18.8207 1.34164 18.8867 1.43997 18.9318 1.54828C18.9768 1.65659 19 1.77273 19 1.89003V18.13Z" fill="white"/>
</svg>
