<svg width="24" height="20" viewBox="0 0 24 20" fill="none" xmlns="http://www.w3.org/2000/svg">
<path d="M1 9H20.9495L13.3105 1.724C12.9105 1.343 12.895 0.71 13.276 0.31C13.6565 -0.0895003 14.2895 -0.1055 14.69 0.2755L23.414 8.5855C23.7915 8.9635 24 9.4655 24 10C24 10.534 23.7915 11.0365 23.3965 11.431L14.6895 19.724C14.496 19.9085 14.248 20 14 20C13.736 20 13.472 19.896 13.2755 19.6895C12.8945 19.2895 12.91 18.657 13.31 18.276L20.981 11H1C0.448 11 0 10.552 0 10C0 9.448 0.448 9 1 9Z" fill="white"/>
</svg>
