<svg width="80" height="80" viewBox="0 0 80 80" fill="none" xmlns="http://www.w3.org/2000/svg">
<path d="M68.2842 11.7156C60.7292 4.16063 50.6844 0 40 0C29.3155 0 19.2705 4.16078 11.7156 11.7156C4.16063 19.2706 0 29.3156 0 40C0 50.6844 4.16063 60.7294 11.7156 68.2844C19.2705 75.8392 29.3155 80 40 80C50.6844 80 60.7292 75.8394 68.2842 68.2844C75.8392 60.7292 80 50.6844 80 40C80 29.3156 75.8392 19.2708 68.2842 11.7156ZM40 75.3125C20.5286 75.3125 4.6875 59.4714 4.6875 40C4.6875 20.5286 20.5286 4.6875 40 4.6875C59.4714 4.6875 75.3125 20.5286 75.3125 40C75.3125 59.4714 59.4714 75.3125 40 75.3125Z" fill="white"/>
<path d="M62.6389 38.05L32.5139 17.9664C31.7946 17.487 30.8701 17.4422 30.1079 17.8501C29.3459 18.2579 28.8701 19.0522 28.8701 19.9165V60.0831C28.8701 60.9475 29.3459 61.7417 30.1079 62.1495C30.4545 62.335 30.8345 62.4268 31.2137 62.4268C31.6684 62.4268 32.1218 62.2947 32.5139 62.0332L62.6389 41.9501C63.2909 41.5154 63.6826 40.7836 63.6826 40C63.6825 39.2165 63.2909 38.4847 62.6389 38.05ZM33.5575 55.704V24.2961L57.1134 40.0001L33.5575 55.704Z" fill="white"/>
</svg>
